# AST/ASF file generated using VICON BodyLanguage
# -----------------------------------------------
:version 1.10
:name VICON
:units
  mass 1.0
  length 0.45
  angle deg
:documentation
   .ast/.asf automatically generated from VICON data using
   VICON BodyBuilder and BodyLanguage model FoxedUp or BRILLIANT.MOD
:root
   order TX TY TZ RX RY RZ
   axis XYZ
   position 0 0 0  
   orientation 0 0 0 
:bonedata
  begin
     id 1 
     name lhipjoint
     direction 0.57768 -0.667037 0.470475 
     length 2.36008 
     axis 0 0 0  XYZ
  end
  begin
     id 2 
     name lfemur
     direction 0.34202 -0.939693 0  
     length 6.97235  
     axis 0 0 20  XYZ
    dof rx ry rz
    limits (-160.0 20.0)
           (-70.0 70.0)
           (-60.0 70.0)
  end
  begin
     id 3 
     name ltibia
     direction 0.34202 -0.939693 0   
     length 6.93428   
     axis 0 0 20   XYZ
    dof rx
    limits (-10.0 170.0)
  end
  begin
     id 4 
     name lfoot
     direction 0.133018 -0.365463 0.921272   
     length 2.18603   
     axis -90 7.62852e-016 20   XYZ
    dof rx rz
    limits (-45.0 90.0)
           (-70.0 20.0)
  end
  begin
     id 5 
     name ltoes
     direction 1.53519e-011 -4.22055e-011 1   
     length 1.07924   
     axis -90 7.62852e-016 20   XYZ
    dof rx
    limits (-90.0 20.0)
  end
  begin
     id 6 
     name rhipjoint
     direction -0.577712 -0.667019 0.470462   
     length 2.36015  
     axis 0 0 0  XYZ 
  end
  begin
     id 7 
     name rfemur
     direction -0.34202 -0.939693 0   
     length 6.71195   
     axis 0 0 -20   XYZ
    dof rx ry rz
    limits (-160.0 20.0)
           (-70.0 70.0)
           (-70.0 60.0)
  end
  begin
     id 8 
     name rtibia
     direction -0.34202 -0.939693 0   
     length 7.04592   
     axis 0 0 -20   XYZ
    dof rx
    limits (-10.0 170.0)
 end
 begin
     id 9 
     name rfoot
     direction -0.113796 -0.312651 0.943027   
     length 2.03846  
     axis -90 -7.62852e-016 -20   XYZ
    dof rx rz
    limits (-45.0 90.0)
           (-20.0 70.0)
  end
  begin
     id 10 
     name rtoes
     direction -1.53586e-011 -4.218e-011 1   
     length 1.01562   
     axis -90 -7.62852e-016 -20   XYZ
    dof rx
    limits (-90.0 20.0)
  end
  begin
     id 11 
     name lowerback
     direction -0.0417299 0.991937 -0.119667   
     length 2.05257   
     axis 0 0 0   XYZ
    dof rx ry rz
    limits (-20.0 45.0)
           (-30.0 30.0)
           (-30.0 30.0)
  end
  begin
     id 12 
     name upperback
     direction -0.00017666 0.999999 0.00105178   
     length 2.05693   
     axis 0 0 0   XYZ
    dof rx ry rz
    limits (-20.0 45.0)
           (-30.0 30.0)
           (-30.0 30.0)
  end
  begin
     id 13 
     name thorax
     direction 0.0185169 0.998203 0.0569866   
     length 2.0932   
     axis 0 0 0   XYZ
    dof rx ry rz
    limits (-20.0 45.0)
           (-30.0 30.0)
           (-30.0 30.0)
  end
  begin
     id 14 
     name lowerneck
     direction -0.0212406 0.982645 0.184277   
     length 1.72509   
     axis 0 0 0   XYZ
    dof rx ry rz
    limits (-20.0 45.0)
           (-30.0 30.0)
           (-30.0 30.0)
  end
  begin
     id 15 
     name upperneck
     direction 0.00528579 0.965323 -0.261004   
     length 1.76294   
     axis 0 0 0   XYZ
    dof rx ry rz
    limits (-20.0 45.0)
           (-30.0 30.0)
           (-30.0 30.0)
  end
  begin
     id 16
     name head
     direction 0.00695421 0.994078 -0.108445  
     length 1.78678  
     axis 0 0 0   XYZ
    dof rx ry rz
    limits (-20.0 45.0)
           (-30.0 30.0)
           (-30.0 30.0)
  end
  begin
     id 17 
     name lclavicle
     direction 0.97277 0.211305 -0.095232  
     length 3.84823  
     axis 0 0 0   XYZ
    dof ry rz
    limits (-20.0 10.0)
           (0.0 20.0)
  end
  begin
     id 18 
     name lhumerus
     direction 1 -4.48957e-011 -1.98313e-027   
     length 4.97185   
     axis 180 -30 -90   XYZ
    dof rx ry rz
    limits (-60.0 90.0)
           (-90.0 90.0)
           (-90.0 90.0)
  end
  begin
     id 19
     name lradius
     direction 1 -4.4898e-011 7.31063e-027   
     length 3.35811   
     axis 180 -30 -90   XYZ
    dof rx
    limits (-10.0 170.0)
  end
  begin
     id 20
     name lwrist
     direction 1 -4.48938e-011 9.95048e-027   
     length 1.67905   
     axis -8.75986e-015 90 90   XYZ
    dof ry
    limits (-180.0 0.0)
 end
  begin
     id 21 
     name lhand
     direction 1 -4.4901e-011 1.9901e-026   
     length 0.622776   
     axis -1.26985e-014 90 90   XYZ
    dof rx rz
    limits (-90.0 90.0)
           (-45.0 45.0)
  end
  begin
     id 22 
     name lfingers
     direction 1 -4.48961e-011 3.98019e-026   
     length 0.502098   
     axis -2.5397e-014 90 90   XYZ
    dof rx
    limits (0.0 90.0)
  end
  begin
     id 23
     name lthumb
     direction 0.707107 -6.34933e-011 0.707107   
     length 0.720915   
     axis -90 45 2.85299e-015   XYZ
    dof rx rz
    limits (-45.0 45.0)
           (-45.0 45.0)
  end
  begin
     id 24 
     name rclavicle
     direction -0.990867 0.133739 -0.0172226   
     length 3.78845  
     axis 0 0 0   XYZ 
    dof ry rz
    limits (-10.0 20.0)
           (-20.0 0.0)
  end
  begin
     id 25 
     name rhumerus
     direction -1 -4.48972e-011 -1.99267e-027  
     length 4.96493   
     axis 180 30 90   XYZ
    dof rx ry rz
    limits (-90.0 60.0)
           (-90.0 90.0)
           (-90.0 90.0)
  end
  begin
     id 26 
     name rradius
     direction -1 -4.48969e-011 8.96093e-027   
     length 3.34929   
     axis 180 30 90   XYZ
    dof rx
    limits (-10.0 170.0)
  end
  begin
     id 27 
     name rwrist
     direction -1 -4.48953e-011 9.95048e-027   
     length 1.67464   
     axis -8.75986e-015 -90 -90   XYZ
    dof ry
    limits (-180.0 0.0)
  end
  begin
     id 28
     name rhand
     direction -1 -4.49001e-011 1.9901e-026   
     length 0.638041   
     axis -1.26985e-014 -90 -90   XYZ
    dof rx rz
    limits (-90.0 90.0)
           (-45.0 45.0)
  end
  begin
     id 29
     name rfingers
     direction -1 -4.48967e-011 3.98019e-026   
     length 0.514405   
     axis -2.5397e-014 -90 -90   XYZ
    dof rx
    limits (0.0 90.0)
  end
  begin
     id 30
     name rthumb
     direction -0.707107 -6.34904e-011 0.707107   
     length 0.738586   
     axis -90 -45 -2.85299e-015   XYZ
    dof rx rz
    limits (-45.0 45.0)
           (-45.0 45.0)
  end
:hierarchy
  begin
    root lhipjoint rhipjoint lowerback
    lhipjoint lfemur
    lfemur ltibia
    ltibia lfoot
    lfoot ltoes
    rhipjoint rfemur
    rfemur rtibia
    rtibia rfoot
    rfoot rtoes
    lowerback upperback
    upperback thorax
    thorax lowerneck lclavicle rclavicle
    lowerneck upperneck
    upperneck head
    lclavicle lhumerus
    lhumerus lradius
    lradius lwrist
    lwrist lhand lthumb
    lhand lfingers
    rclavicle rhumerus
    rhumerus rradius
    rradius rwrist
    rwrist rhand rthumb
    rhand rfingers
  end

#!OML:ASF E:\Mandelcareful walks\Project 1\Capture day 1\Session 1\Subject1.ASF
:FULLY-SPECIFIED
:DEGREES
32
root -3.99388 16.8065 -0.228268 138.466 78.9526 134.145
lowerback -7.9561 0.405296 -10.6819
upperback 1.31256 1.72932 -1.20308
thorax 5.61412 0.545643 4.94809
lowerneck -19.4986 -0.350421 -5.21317
upperneck 29.7537 1.36819 1.77757
head 13.2133 0.477466 1.87513
rclavicle -2.14315e-015 1.32192e-014
rhumerus -31.2566 -4.97868 -84.3886
rradius 27.9651
rwrist -8.22359
rhand -10.1074 -30.6955
rfingers 7.12502
rthumb 15.8803 -60.0643
lclavicle -2.14315e-015 1.32192e-014
lhumerus -26.8211 13.5708 85.9458
lradius 21.0654
lwrist 0.116038
lhand -20.1828 -10.5857
lfingers 7.12502
lthumb 6.16338 19.3047
rfemur -0.277313 1.43743 4.4088
rtibia 15.0371
rfoot -21.5045 -26.7937
rtoes 2.28306
lfemur -1.17768 -6.85186 -23.6271
ltibia 13.9812
lfoot -18.6288 22.378
ltoes -0.307773
33
root -3.99098 16.8073 -0.231996 137.537 79.2429 133.144
lowerback -7.94114 0.389272 -10.607
upperback 1.2327 1.68993 -1.17567
thorax 5.52681 0.535223 4.9295
lowerneck -19.5972 -0.346126 -5.20542
upperneck 29.8398 1.38087 1.77103
head 13.2698 0.480754 1.87615
rclavicle -1.87914e-014 1.09332e-015
rhumerus -31.3938 -5.33936 -84.1385
rradius 27.6711
rwrist -7.69274
rhand -9.97386 -30.6073
rfingers 7.12502
rthumb 16.0088 -59.9659
lclavicle -1.87914e-014 1.09332e-015
lhumerus -26.8162 12.8258 86.1678
lradius 21.4054
lwrist 0.865297
lhand -20.0866 -10.0689
lfingers 7.12502
lthumb 6.25617 19.8188
rfemur -0.478524 1.6028 4.45792
rtibia 15.0711
rfoot -21.3601 -26.7369
rtoes 2.09376
lfemur -1.1801 -6.85984 -23.5911
ltibia 13.9373
lfoot -18.7761 22.699
ltoes -0.424021
34
root -3.98779 16.8051 -0.236949 136.05 79.5035 131.69
lowerback -7.91262 0.383487 -10.6072
upperback 1.25797 1.68004 -1.17538
thorax 5.53922 0.528661 4.9283
lowerneck -19.7439 -0.300959 -5.19134
upperneck 29.8377 1.42589 1.81952
head 13.297 0.505375 1.90116
rclavicle -4.92365e-014 1.88845e-015
rhumerus -31.3959 -5.48342 -84.0185
rradius 27.3903
rwrist -7.3673
rhand -10.0318 -30.4149
rfingers 7.12502
rthumb 15.9531 -59.7779
lclavicle -4.92365e-014 1.88845e-015
lhumerus -26.6963 12.3818 86.2532
lradius 21.6523
lwrist 1.11157
lhand -19.7647 -9.9183
lfingers 7.12502
lthumb 6.56699 19.9599
rfemur -0.588967 1.62812 4.39884
rtibia 15.1146
rfoot -21.1999 -26.4784
rtoes 1.92588
lfemur -1.04579 -6.9428 -23.6585
ltibia 13.8721
lfoot -19.0815 23.1345
ltoes -0.361365
35
root -3.98158 16.804 -0.238936 134.667 79.6763 130.352
lowerback -7.95578 0.353034 -10.7063
upperback 1.31647 1.65993 -1.17784
thorax 5.62826 0.508902 4.98039
lowerneck -19.9026 -0.240254 -5.09305
upperneck 29.8801 1.48821 1.80784
head 13.346 0.538976 1.89244
rclavicle 2.79603e-014 4.27387e-015
rhumerus -31.4044 -5.54841 -83.9855
rradius 27.0959
rwrist -7.45694
rhand -10.3797 -29.6854
rfingers 7.12502
rthumb 15.618 -59.0749
lclavicle 2.79603e-014 4.27387e-015
lhumerus -26.506 11.8804 86.3773
lradius 21.8259
lwrist 1.27254
lhand -19.7227 -9.69948
lfingers 7.12502
lthumb 6.60747 20.1774
rfemur -0.635586 1.70974 4.32773
rtibia 15.1594
rfoot -21.2778 -26.262
rtoes 2.30645
lfemur -0.873314 -7.0664 -23.756
ltibia 13.8002
lfoot -19.3468 23.4958
ltoes 0.176515
36
root -3.97696 16.8075 -0.23923 133.901 79.8726 129.577
lowerback -7.98764 0.304824 -10.7419
upperback 1.30687 1.59912 -1.13113
thorax 5.64416 0.476023 5.04343
lowerneck -19.9762 -0.167703 -5.01137
upperneck 29.9586 1.58323 1.77234
head 13.3913 0.583341 1.8831
rclavicle -1.11754e-014 -5.96354e-016
rhumerus -31.4684 -5.74336 -83.8264
rradius 27.1204
rwrist -6.98117
rhand -9.63602 -31.213
rfingers 7.12502
rthumb 16.3341 -60.5451
lclavicle -1.11754e-014 -5.96354e-016
lhumerus -26.5027 11.1888 86.5604
lradius 22.139
lwrist 1.70107
lhand -19.7741 -9.85161
lfingers 7.12502
lthumb 6.55787 20.0269
rfemur -0.716687 1.88891 4.39121
rtibia 15.198
rfoot -21.3292 -26.1817
rtoes 2.86632
lfemur -0.785478 -7.119 -23.7236
ltibia 13.7546
lfoot -19.4573 23.7107
ltoes 0.834198
37
root -3.9734 16.8111 -0.241015 133.521 80.0978 129.212
lowerback -7.98564 0.305024 -10.6122
upperback 1.32362 1.58404 -1.10306
thorax 5.66472 0.469983 4.99914
lowerneck -20.0827 -0.123657 -4.99617
upperneck 29.9789 1.62761 1.82281
head 13.4196 0.609334 1.90928
rclavicle 6.84565e-015 -1.31198e-014
rhumerus -31.4733 -6.178 -83.5798
rradius 26.7173
rwrist -6.50898
rhand -9.8419 -32.0125
rfingers 7.12502
rthumb 16.1359 -61.3608
lclavicle 6.84565e-015 -1.31198e-014
lhumerus -26.5488 10.4716 86.7233
lradius 22.6347
lwrist 2.1222
lhand -19.615 -9.95895
lfingers 7.12502
lthumb 6.71152 19.9147
rfemur -0.762714 1.94437 4.52185
rtibia 15.2053
rfoot -21.1173 -26.0858
rtoes 2.89237
lfemur -0.727255 -7.05874 -23.6072
ltibia 13.7512
lfoot -19.5032 23.8534
ltoes 0.92912
38
root -3.97032 16.8106 -0.24337 133.056 80.2312 128.837
lowerback -7.89205 0.275074 -10.5434
upperback 1.37225 1.52807 -1.10334
thorax 5.67375 0.442312 4.95195
lowerneck -20.236 -0.0132838 -4.89076
upperneck 29.9862 1.75215 1.82589
head 13.45 0.673303 1.9151
rclavicle 2.55314e-015 -3.37934e-015
rhumerus -31.4819 -6.74348 -83.2936
rradius 26.4164
rwrist -5.66978
rhand -9.51471 -32.1271
rfingers 7.12502
rthumb 16.4509 -61.4495
lclavicle 2.55314e-015 -3.37934e-015
lhumerus -26.516 10.1119 86.7675
lradius 22.9428
lwrist 2.28438
lhand -19.4259 -10.4078
lfingers 7.12502
lthumb 6.89406 19.4599
rfemur -0.691093 1.97117 4.57722
rtibia 15.1829
rfoot -21.0078 -26.0336
rtoes 2.37963
lfemur -0.617384 -6.94124 -23.5709
ltibia 13.7725
lfoot -19.4613 23.9402
ltoes 0.541454
39
root -3.96742 16.8088 -0.245811 132.359 80.306 128.197
lowerback -7.72837 0.200641 -10.5749
upperback 1.30776 1.4076 -1.11747
thorax 5.53078 0.392376 4.93615
lowerneck -20.217 0.188176 -4.67892
upperneck 30.049 1.98909 1.77879
head 13.4641 0.794697 1.902
rclavicle -2.10588e-015 5.96354e-015
rhumerus -31.7355 -6.97232 -83.1514
rradius 26.5578
rwrist -5.37903
rhand -8.9687 -32.6459
rfingers 7.12502
rthumb 16.9766 -61.9241
lclavicle -2.10588e-015 5.96354e-015
lhumerus -26.6118 9.8354 86.756
lradius 23.1719
lwrist 2.49257
lhand -19.3313 -10.6998
lfingers 7.12502
lthumb 6.98538 19.1649
rfemur -0.665306 1.99652 4.5559
rtibia 15.1875
rfoot -21.003 -25.9937
rtoes 1.86794
lfemur -0.529217 -6.88182 -23.6039
ltibia 13.7765
lfoot -19.5245 23.97
ltoes 0.477388
40
root -3.96398 16.8095 -0.247071 131.668 80.4769 127.493
lowerback -7.65741 0.184709 -10.5217
upperback 1.20322 1.36493 -1.12543
thorax 5.38616 0.384498 4.89067
lowerneck -20.0735 0.374408 -4.46337
upperneck 30.1125 2.20962 1.70835
head 13.4542 0.908582 1.87492
rclavicle 1.46914e-014 2.34566e-014
rhumerus -32.0025 -7.24896 -82.968
rradius 26.1263
rwrist -4.8327
rhand -9.41769 -31.5347
rfingers 7.12502
rthumb 16.5443 -60.8494
lclavicle 1.46914e-014 2.34566e-014
lhumerus -26.7037 9.39152 86.8453
lradius 23.4539
lwrist 2.81708
lhand -19.4471 -9.84768
lfingers 7.12502
lthumb 6.87359 20.0207
rfemur -0.751059 2.03772 4.61571
rtibia 15.2263
rfoot -20.9122 -25.9281
rtoes 1.67988
lfemur -0.485317 -6.87612 -23.5477
ltibia 13.7493
lfoot -19.771 23.9831
ltoes 0.795588
41
root -3.96217 16.8122 -0.248412 130.776 80.6561 126.574
lowerback -7.68252 0.197383 -10.4909
upperback 1.19634 1.38039 -1.11419
thorax 5.39069 0.392637 4.88762
lowerneck -20.1024 0.581914 -4.19258
upperneck 30.1974 2.50696 1.46553
head 13.4928 1.0355 1.78604
rclavicle -4.50993e-015 1.98785e-014
rhumerus -31.9497 -7.5975 -82.7461
rradius 25.7673
rwrist -4.73271
rhand -9.58584 -31.3408
rfingers 7.12502
rthumb 16.3824 -60.669
lclavicle -4.50993e-015 1.98785e-014
lhumerus -26.5797 9.04896 86.9989
lradius 23.5631
lwrist 3.0888
lhand -19.6949 -9.4472
lfingers 7.12502
lthumb 6.63438 20.4289
rfemur -0.874635 1.96863 4.63889
rtibia 15.2585
rfoot -20.6033 -25.8205
rtoes 1.32229
lfemur -0.449768 -6.8309 -23.5139
ltibia 13.7074
lfoot -19.9287 24.0612
ltoes 0.893627
42
root -3.96062 16.814 -0.250137 130.072 80.7835 125.88
lowerback -7.68611 0.193619 -10.4781
upperback 1.25036 1.37644 -1.0927
thorax 5.45082 0.385333 4.90333
lowerneck -20.2602 0.896848 -3.76721
upperneck 30.2991 2.95587 1.08871
head 13.5685 1.22519 1.64605
rclavicle 1.04983e-015 -1.88845e-014
rhumerus -31.8029 -7.93132 -82.546
rradius 25.3977
rwrist -4.63953
rhand -9.85425 -30.8555
rfingers 7.12502
rthumb 16.124 -60.2048
lclavicle 1.04983e-015 -1.88845e-014
lhumerus -26.3813 8.83717 87.1216
lradius 23.5757
lwrist 3.28946
lhand -19.6858 -10.2178
lfingers 7.12502
lthumb 6.64315 19.658
rfemur -0.936587 2.00438 4.66785
rtibia 15.2547
rfoot -20.3749 -25.9083
rtoes 0.518427
lfemur -0.389393 -6.77012 -23.5037
ltibia 13.6749
lfoot -19.9481 24.1837
ltoes 0.761591
